# xmcd
#
# Track frame offsets:
#	150
#	26058
#	56576
#	80378
#	105929
#	134015
#	161079
#	192110
#	217990
#	238890
#	259344
#	284200
#	306734
#
# Disc length: 4408 seconds
#
# Revision: 1
# Processed by: cddbd v1.5.2PL0 Copyright (c) Steve Scherf et al.
# Submitted via: EZCDAudioConverter 8.0.2.1
#
DISCID=c811360d
DTITLE=Toàn Nguyễn - Tiền Chiến
DYEAR=2009
DGENRE=Country
TTITLE0=Nỗi lòng người đi
TTITLE1=Đêm đông
TTITLE2=Gửi gió cho mây ngàn bay
TTITLE3=Gửi người em gái
TTITLE4=Hoài cảm
TTITLE5=Em đến thăm anh một chiều mưa
TTITLE6=Tà áo xanh
TTITLE7=Biệt ly
TTITLE8=Nhớ mùa hoa tím
TTITLE9=Nỗi lòng
TTITLE10=Lá thư
TTITLE11=Tóc mây
TTITLE12=Tình khúc thứ nhất
EXTD=
EXTT0=
EXTT1=
EXTT2=
EXTT3=
EXTT4=
EXTT5=
EXTT6=
EXTT7=
EXTT8=
EXTT9=
EXTT10=
EXTT11=
EXTT12=
PLAYORDER=
